<?xml version="1.0" encoding="utf-8"?>
<!-- Generator: Adobe Illustrator 24.0.0, SVG Export Plug-In . SVG Version: 6.00 Build 0)  -->
<svg version="1.1" id="Layer_1" xmlns="http://www.w3.org/2000/svg" xmlns:xlink="http://www.w3.org/1999/xlink" x="0px" y="0px"
	 viewBox="0 0 92.47 88.59" style="enable-background:new 0 0 92.47 88.59;" xml:space="preserve">
<style type="text/css">
	.st0{fill-rule:evenodd;clip-rule:evenodd;fill:#FFFFFF;}
	.st1{fill:none;}
</style>
<g>
	<path class="st0" d="M13.61,48.46c0.17,1.46,0.31,2.81,0.6,4.25c1.03,5.19,2.99,9.48,5.68,13.76c1.57,2.49,4.42,6.19,6.86,8.21
		c1.53,1.26,2.71,2.17,4.66,3.01c1.5,0.65,2.2,0.56,2.51,0.67c0,0,1.55,0.18,2.92-0.82c0.53-0.39,0.94-0.89,1.34-1.48
		c2.09-3.16,2.86-9.9,3.1-13.72c0.25-4.09,0.08-11.35-1.29-15.28c-0.62-1.77-1.45-3.21-2.64-4.38l-2.94-2.65
		c-0.25-0.21-0.51-0.4-0.77-0.61c-2.27-1.84-6.17-4.23-8.99-5.04c-6.94-2-9.99,1.72-10.89,7.65c-0.06,0.4-0.12,0.81-0.16,1.22
		c-0.02,0.25-0.06,1.19-0.1,1.32"/>
	<path class="st0" d="M34.6,10.21h-2.89c-0.17,0.06-2.11,0.15-2.51,0.2c-0.82,0.09-1.62,0.21-2.41,0.36c-1.48,0.28-3,0.72-4.24,1.3
		c-2.41,1.13-4.73,3.03-4.33,6.67c0.3,2.68,2.41,5.78,4.06,7.71c0.52,0.61,1.88,2.01,2.39,2.46c3.53,3.17,4.74,4.19,9.8,6.84
		c1.2,0.63,2.47,1.25,3.83,1.72c1.39,0.49,3.19,1.05,4.48,0.11c0.63-0.46,0.72-1.77,0.59-2.15c-0.14-0.42-0.99-0.76-1.21-1.57
		c-0.29-1.08,0.59-3.63,1.02-4.45c2.05-3.87,5.96-1.98,6.66-0.03c0.55,1.53-0.35,3.17-1.03,4.14c-0.39,0.56-0.83,0.99-1.19,1.59
		c-0.37,0.61-0.68,1.35-0.2,2.1c0.78,1.22,2.76,1.04,4.32,0.63c3.17-0.82,7.42-3.16,9.96-5.29c1.26-1.05,2.39-2.33,3.1-3.83
		c0.65-1.36,0.75-3.15,0.24-4.65c-0.38-1.13-1.32-2.53-2.14-3.4c-0.46-0.49-0.86-0.94-1.38-1.39c-0.6-0.51-0.83-0.73-1.52-1.25
		c-4.38-3.29-10.11-5.33-15.62-6.55c-2.34-0.52-4.79-0.9-7.2-1.12C36.8,10.34,34.77,10.27,34.6,10.21"/>
	<path class="st0" d="M78.97,38.95v-2.14c-0.08-0.23-0.14-2-0.91-3.22c-0.42-0.67-1.41-1.38-2.46-1.72
		c-2.02-0.65-5.18,0.18-6.99,0.84c-2.45,0.9-3.53,1.33-5.91,2.46c-1.64,0.77-3.84,2.05-5.35,3.01c-1.4,0.89-2.39,1.62-3.69,2.56
		c-0.2,0.15-0.39,0.3-0.58,0.46c-1.87,1.51-3.18,2.98-4.03,5.4c-1.52,4.34-2.3,15.04,0.93,19.46c1.78,2.43,4.66,2.76,7.65,1.7
		c3.95-1.39,7.75-4.15,10.61-7.15l1.25-1.35c0.1-0.11,0.14-0.18,0.25-0.29c0.91-0.94,2.95-3.81,3.56-4.8
		c0.53-0.86,1.03-1.7,1.54-2.64c0.96-1.75,1.85-3.83,2.55-5.81c0.55-1.56,1.05-3.26,1.33-4.92C78.78,40.45,78.9,39.13,78.97,38.95"
		/>
</g>
<rect x="580.62" y="44.16" class="st1" width="259.2" height="259.2"/>
</svg>
